<svg aria-hidden="true" style="position:absolute; width:0; height:0; overflow:hidden" xmlns="http://www.w3.org/2000/svg">
<defs>
<symbol id="email-icon" viewBox="0 0 32 32"><path d="M29 4H3C1.35 4 0 5.35 0 7v20c0 1.65 1.35 3 3 3h26c1.65 0 3-1.35 3-3V7c0-1.65-1.35-3-3-3zM12.461 17.199 4 23.789V8.113l8.461 9.086zM5.512 8h20.976L16 15.875 5.512 8zm7.278 9.553L16 21l3.21-3.447L25.79 26H6.211l6.58-8.447zm6.749-.354L28 8.113v15.676l-8.461-6.59z"/>
</symbol>

<symbol id="tel-icon" viewBox="0 0 32 32"><path d="M23 0H9C7.35 0 6 1.35 6 3v26c0 1.65 1.35 3 3 3h14c1.65 0 3-1.35 3-3V3c0-1.65-1.35-3-3-3zM12 1.5h8v1h-8v-1zM16 30c-1.105 0-2-.895-2-2s.895-2 2-2 2 .895 2 2-.895 2-2 2zm8-6H8V4h16v20z"/>
</symbol>

<symbol id="facebook" viewBox="0 0 32 32"><path d="M19 6h5V0h-5c-3.86 0-7 3.14-7 7v3H8v6h4v16h6V16h5l1-6h-6V7c0-.542.458-1 1-1z"/>
</symbol>

<symbol id="instagram" viewBox="0 0 32 32" x="144"><path d="M16 2.881c4.275 0 4.781.019 6.462.094 1.563.069 2.406.331 2.969.55.744.288 1.281.638 1.837 1.194.563.563.906 1.094 1.2 1.838.219.563.481 1.412.55 2.969.075 1.688.094 2.194.094 6.463s-.019 4.781-.094 6.463c-.069 1.563-.331 2.406-.55 2.969-.288.744-.637 1.281-1.194 1.837-.563.563-1.094.906-1.837 1.2-.563.219-1.413.481-2.969.55-1.688.075-2.194.094-6.463.094s-4.781-.019-6.463-.094c-1.563-.069-2.406-.331-2.969-.55-.744-.288-1.281-.637-1.838-1.194-.563-.563-.906-1.094-1.2-1.837-.219-.563-.481-1.413-.55-2.969-.075-1.688-.094-2.194-.094-6.463s.019-4.781.094-6.463c.069-1.563.331-2.406.55-2.969.288-.744.638-1.281 1.194-1.838.563-.563 1.094-.906 1.838-1.2.563-.219 1.412-.481 2.969-.55 1.681-.075 2.188-.094 6.463-.094zM16 0c-4.344 0-4.887.019-6.594.094-1.7.075-2.869.35-3.881.744-1.056.412-1.95.956-2.837 1.85-.894.888-1.438 1.781-1.85 2.831C.444 6.538.169 7.7.094 9.4.019 11.113 0 11.656 0 16s.019 4.887.094 6.594c.075 1.7.35 2.869.744 3.881.413 1.056.956 1.95 1.85 2.837.887.887 1.781 1.438 2.831 1.844 1.019.394 2.181.669 3.881.744 1.706.075 2.25.094 6.594.094s4.888-.019 6.594-.094c1.7-.075 2.869-.35 3.881-.744 1.05-.406 1.944-.956 2.831-1.844s1.438-1.781 1.844-2.831c.394-1.019.669-2.181.744-3.881.075-1.706.094-2.25.094-6.594s-.019-4.887-.094-6.594c-.075-1.7-.35-2.869-.744-3.881-.394-1.063-.938-1.956-1.831-2.844-.887-.887-1.781-1.438-2.831-1.844-1.019-.394-2.181-.669-3.881-.744-1.712-.081-2.256-.1-6.6-.1z"/><path d="M16 7.781c-4.537 0-8.219 3.681-8.219 8.219s3.681 8.219 8.219 8.219 8.219-3.681 8.219-8.219c0-4.537-3.681-8.219-8.219-8.219zm0 13.55c-2.944 0-5.331-2.387-5.331-5.331s2.387-5.331 5.331-5.331c2.944 0 5.331 2.387 5.331 5.331S18.944 21.331 16 21.331zM26.462 7.456c0 1.06-.859 1.919-1.919 1.919s-1.919-.859-1.919-1.919.859-1.919 1.919-1.919 1.919.859 1.919 1.919z"/>
</symbol>

<symbol id="twitter" viewBox="0 0 32 32" x="192"><path d="M32 7.075c-1.175.525-2.444.875-3.769 1.031 1.356-.813 2.394-2.1 2.887-3.631-1.269.75-2.675 1.3-4.169 1.594C25.749 4.794 24.043 4 22.155 4c-3.625 0-6.563 2.938-6.563 6.563 0 .512.056 1.012.169 1.494-5.456-.275-10.294-2.888-13.531-6.862-.563.969-.887 2.1-.887 3.3 0 2.275 1.156 4.287 2.919 5.463-1.075-.031-2.087-.331-2.975-.819v.081c0 3.181 2.263 5.838 5.269 6.437-.55.15-1.131.231-1.731.231-.425 0-.831-.044-1.237-.119.838 2.606 3.263 4.506 6.131 4.563-2.25 1.762-5.075 2.813-8.156 2.813-.531 0-1.05-.031-1.569-.094 2.913 1.869 6.362 2.95 10.069 2.95 12.075 0 18.681-10.006 18.681-18.681 0-.287-.006-.569-.019-.85 1.281-.919 2.394-2.075 3.275-3.394z"/>
</symbol>

<symbol id="linkedin" viewBox="0 0 32 32" x="240"><path d="M12 12h5.535v2.837h.079c.77-1.381 2.655-2.837 5.464-2.837C28.92 12 30 15.637 30 20.367V30h-5.769v-8.54c0-2.037-.042-4.657-3.001-4.657-3.005 0-3.463 2.218-3.463 4.509V30H12V12zM2 12h6v18H2V12zM8 7c0 1.657-1.343 3-3 3S2 8.657 2 7s1.343-3 3-3 3 1.343 3 3z"/>
</symbol>

<symbol id="antena"><path d="M67.3163 48.3385 48.8468 29.7337l2.0498-10.0964a4.6548 4.6548 0 0 0 1.659.3185h.014c2.6081.0308 4.7473-2.0584 4.7783-4.6665.0309-2.6081-2.0585-4.7473-4.6666-4.7782-2.6081-.0308-4.7473 2.0584-4.7782 4.6665a4.719 4.719 0 0 0 .2729 1.6387l-10.85 1.3242L19.6276.35A1.1664 1.1664 0 0 0 18.804 0a1.1665 1.1665 0 0 0-.8167.3395l-3.3087 3.29c-.4554.4556-.4554 1.194 0 1.6497l1.7804 1.806C9.5616 19.768 11.8019 35.474 21.9703 45.7228c.0933.0893.2015.1615.3197.2135a6.7707 6.7707 0 0 0-.1144 1.197v13.5334h-14c-3.22.0038-5.8295 2.6133-5.8333 5.8333v2.3333c0 .6443.5224 1.1667 1.1667 1.1667h53.6666c.6443 0 1.1667-.5224 1.1667-1.1667V66.5c-.0038-3.22-2.6133-5.8295-5.8333-5.8333h-14v-5.9979a32.879 32.879 0 0 0 6.6686.7 32.4831 32.4831 0 0 0 15.4-3.9013l1.7897 1.8002c.2171.2215.5135.3475.8237.35a1.1668 1.1668 0 0 0 .8166-.3395l3.3087-3.29c.4554-.4556.4554-1.1941 0-1.6497ZM50.9246 13.6348c.9137-.9088 2.3911-.9047 3.2998.0089.9088.9137.9047 2.3911-.0089 3.2998a2.3335 2.3335 0 0 1-1.646.679h-.007c-1.2886-.0067-2.328-1.0567-2.3213-2.3454a2.3341 2.3341 0 0 1 .6879-1.6423h-.0045Zm-2.7463 7.6662-1.309 6.4435-2.5713-2.5865 3.8803-3.857Zm-1.3253-1.9728-4.2 4.1755-3.2492-3.2667 7.4492-.9088ZM52.509 63c1.933 0 3.5 1.567 3.5 3.5v1.1667H4.6756V66.5c0-1.933 1.567-3.5 3.5-3.5H52.509Zm-16.3334-4.6667v2.3334H24.509v-2.3334h11.6666ZM24.509 56v-8.8667C24.509 44.303 27.1258 42 30.3423 42c3.2165 0 5.8333 2.303 5.8333 5.1333V56H24.509Zm14-3.71v-5.1567c0-4.1171-3.6634-7.4666-8.1667-7.4666a8.3122 8.3122 0 0 0-7.1773 3.9071c-8.8763-9.3489-10.8751-23.2863-4.9845-34.753L58.872 49.7454A30.233 30.233 0 0 1 38.509 52.29Zm24.6948-1.4957L61.56 49.1412 18.7923 6.1157l-1.6508-1.6544 1.6508-1.645L36.15 20.272c.0081 0 .0128.0152.021.021l28.6883 28.8563-1.6555 1.645Z" fill="#212121"/><path d="M30.3528 44.3333h-.0105c-1.933-.0029-3.5023 1.5617-3.5053 3.4948-.0029 1.933 1.5618 3.5023 3.4948 3.5052h.0105c1.933.0029 3.5023-1.5617 3.5052-3.4947.003-1.9331-1.5617-3.5024-3.4947-3.5053Zm.8167 4.3272a1.1671 1.1671 0 0 1-.8272.3395c-.6443-.0034-1.1639-.5284-1.1606-1.1727a1.1666 1.1666 0 0 1 1.1606-1.1606c.6443.0033 1.1639.5283 1.1605 1.1726a1.1672 1.1672 0 0 1-.3438.8212h.0105Z" fill="#2196F3"/>
</symbol>

<symbol id="clock"><g clip-path="url(#a)"><path d="M68.4614 33.4715C68.4576 14.9819 53.4656-.0037 34.9754 0 16.4858.0037 1.5002 14.9963 1.5039 33.4859c.0032 14.5643 9.4213 27.4554 23.2956 31.8854.1324.0417.2702.063.4086.0625a1.477 1.477 0 0 0 .7492-.2051 1.394 1.394 0 0 0 .6195-.7797l8.4547-26.7969c2.3114-.0117 4.1753-1.8953 4.163-4.2062-.0118-2.3114-1.8948-4.1753-4.2062-4.1635a4.1272 4.1272 0 0 0-1.7939.4187L22.0251 18.5302c-.5544-.5351-1.4372-.5196-1.9723.0342-.5223.541-.5223 1.3976 0 1.9386l11.1634 11.1762c-.8566 1.7485-.3669 3.8591 1.1733 5.0511l-8.0557 25.5344C8.4135 56.4002.2617 38.7405 6.1262 22.8203 11.9907 6.9 29.6503-1.2518 45.5706 4.6127 61.4909 10.477 69.6427 28.1374 63.7782 44.057a30.7208 30.7208 0 0 1-16.3234 17.4418l-.8706-4.1c-.1591-.7535-.8998-1.2353-1.6534-1.0756a1.4021 1.4021 0 0 0-.6398.3242l-8.3932 7.4934c-.5758.5121-.627 1.3938-.1143 1.9696.1666.1869.3802.3257.6195.4021l10.7158 3.4201c.7333.2355 1.5189-.1677 1.7544-.9015a1.395 1.395 0 0 0 .0369-.7167l-.8556-4.023c12.3907-5.2237 20.4357-17.3735 20.4069-30.82Zm-33.4785-1.3949c.7701 0 1.395.6248 1.395 1.3949 0 .7707-.6249 1.395-1.395 1.395-.7706 0-1.3949-.6243-1.3949-1.395 0-.7701.6243-1.3949 1.3949-1.3949Zm4.5945 32.515 4.7777-4.2618 1.3186 6.2132-6.0963-1.9514Z" fill="#212121"/><path d="M33.5879 6.9673v2.79c0 .7706.6243 1.3949 1.3949 1.3949.7702 0 1.395-.6243 1.395-1.395V6.9673c0-.7701-.6248-1.395-1.395-1.395-.7706 0-1.3949.6249-1.3949 1.395ZM8.4787 32.0765c-.7706 0-1.395.6249-1.395 1.395 0 .7706.6243 1.395 1.395 1.395h2.7899c.7707 0 1.395-.6244 1.395-1.395 0-.7701-.6243-1.395-1.395-1.395H8.4787ZM61.4865 34.8665c.7707 0 1.395-.6244 1.395-1.395 0-.7701-.6243-1.395-1.395-1.395h-2.7899c-.7701 0-1.395.6249-1.395 1.395 0 .7706.6249 1.395 1.395 1.395h2.7899Z" fill="#2196F3"/></g><defs><clipPath id="a"><path fill="#fff" d="M0 0h70v70H0z"/></clipPath></defs>
</symbol>

<symbol id="diagram"><g clip-path="url(#a)"><path d="M32.6496 32.7351h2.3321v10.4945h-2.3321V32.7351ZM41.978 37.3993h2.3321v5.8303H41.978v-5.8303ZM23.3211 40.8975h2.3321v2.3321h-2.3321v-2.3321ZM16.3248 39.7314h2.3321v3.4981h-2.3321v-3.4981Z" fill="#2196F3"/><path d="M3.4982 61.8865h55.9707c1.9318 0 3.4981-1.5663 3.4981-3.4982v-4.6642c0-1.9319-1.5663-3.4982-3.4981-3.4982h-1.1661V21.1468l6.6234-6.2744c1.5373.7579 3.398.2978 4.404-1.0909 1.0067-1.3881.8655-3.2994-.3336-4.5247-1.1991-1.2253-3.1065-1.408-4.5168-.4327-1.4097.9759-1.9108 2.8257-1.1865 4.3795l-4.9905 4.7309v-2.6903c0-1.9318-1.5663-3.4981-3.4982-3.4981H8.1624c-1.9319 0-3.4982 1.5663-3.4982 3.4981v34.9817h-1.166C1.5663 50.2259 0 51.7922 0 53.7241v4.6642c0 1.9319 1.5663 3.4982 3.4982 3.4982ZM66.4652 10.58c.6439 0 1.166.5221 1.166 1.1661 0 .6439-.5221 1.166-1.166 1.166-.644 0-1.1661-.5221-1.1661-1.166 0-.644.5221-1.1661 1.1661-1.1661ZM6.9963 15.2442c0-.6439.5221-1.166 1.166-1.166h46.6423c.644 0 1.1661.5221 1.1661 1.166v4.8971l-2.3321 2.216v-4.781c0-.6439-.5221-1.166-1.1661-1.166h-41.978c-.644 0-1.166.5221-1.166 1.166v29.1514c0 .644.522 1.1661 1.166 1.1661h41.978c.644 0 1.1661-.5221 1.1661-1.1661V25.5651l2.3321-2.2097v26.8705H6.9963V15.2442ZM17.4908 30.403c-1.5777-.0046-2.9629 1.0465-3.3825 2.5672-.4197 1.5208.23 3.1338 1.5868 3.9389 1.3562.8051 3.0842.6029 4.2178-.4942l4.0533 2.0337a1.1658 1.1658 0 0 0 1.3921-.2681l8.6162-9.6934 8.4698 6.3466a1.1668 1.1668 0 0 0 1.5009-.0859l7.3613-6.973v17.7869H11.6606V18.7424h39.6459v5.8195l-8.2501 7.8128-8.541-6.4031c-.4851-.3632-1.1678-.2949-1.5709.1577l-8.7346 9.8278-3.2653-1.6329a3.304 3.304 0 0 0 .0444-.4231c0-1.9318-1.5663-3.4981-3.4982-3.4981Zm1.1661 3.4981c0 .644-.5221 1.1661-1.1661 1.1661-.6439 0-1.166-.5221-1.166-1.1661 0-.6439.5221-1.166 1.166-1.166.644 0 1.1661.5221 1.1661 1.166Zm6.9963 18.6569h11.6606v1.1661c0 .6439-.5221 1.166-1.1661 1.166h-9.3284c-.644 0-1.1661-.5221-1.1661-1.166V52.558Zm-23.321 1.1661c0-.644.522-1.1661 1.166-1.1661H23.321v1.1661c0 1.9318 1.5663 3.4982 3.4982 3.4982h9.3284c1.9319 0 3.4982-1.5664 3.4982-3.4982V52.558h19.823c.6439 0 1.166.5221 1.166 1.1661v4.6642c0 .644-.5221 1.1661-1.166 1.1661H3.4982c-.644 0-1.166-.5221-1.166-1.1661v-4.6642Z" fill="#212121"/></g><defs><clipPath id="a"><path fill="#fff" d="M0 0h70v70H0z"/></clipPath></defs>
</symbol>

<symbol id="astronaut"><path d="M69.9433 9.8964a1.1682 1.1682 0 0 0-.9415-.7934l-4.179-.6078-1.8702-3.787c-.392-.7981-1.6999-.7981-2.0918 0l-1.8702 3.787-4.1792.608a1.1694 1.1694 0 0 0-.9427.7933c-.1364.4224-.0234.8867.2952 1.1959l3.0252 2.9483-.7139 4.1627c-.0747.4375.105.8797.4632 1.1411a1.161 1.161 0 0 0 1.2296.0886l3.7381-1.9659 3.7381 1.9659c.1704.0898.3582.1341.5437.1341.2415 0 .4831-.0746.6861-.2228a1.165 1.165 0 0 0 .4632-1.1411l-.7139-4.1628 3.0252-2.9482a1.1704 1.1704 0 0 0 .2948-1.1959Zm-5.3877 2.9027a1.1669 1.1669 0 0 0-.3348 1.0325l.4177 2.4372-2.1886-1.1503a1.1636 1.1636 0 0 0-.5438-.1342c-.1866 0-.3721.0443-.5437.1342l-2.1888 1.1503.4177-2.4372a1.1677 1.1677 0 0 0-.3348-1.0325l-1.7722-1.7266 2.4477-.3559a1.1664 1.1664 0 0 0 .8786-.6382l1.0943-2.2167 1.0943 2.2167c.1704.3441.4982.5834.8786.6382l2.4477.3559-1.7699 1.7266ZM57.167 44.8923h-2.3334v2.3334h2.3334v-2.3334ZM57.167 49.5591h-2.3334v2.3334h2.3334v-2.3334ZM59.5004 47.2257H57.167v2.3334h2.3334v-2.3334ZM54.8337 47.2257h-2.3334v2.3334h2.3334v-2.3334ZM49.0002 57.7259h-2.3334v2.3334h2.3334v-2.3334ZM49.0002 62.3926h-2.3334v2.3334h2.3334v-2.3334ZM51.3337 60.0593h-2.3335v2.3334h2.3335v-2.3334ZM46.6668 60.0593h-2.3334v2.3334h2.3334v-2.3334ZM35 53.0592h-2.3334v2.3334H35v-2.3334ZM35 57.7259h-2.3334v2.3334H35v-2.3334ZM37.3334 55.3925H35v2.3334h2.3334v-2.3334ZM32.6666 55.3925h-2.3334v2.3334h2.3334v-2.3334ZM12.833 13.3918h-2.3334v2.3334h2.3334v-2.3334ZM12.833 18.0587h-2.3334v2.3334h2.3334v-2.3334ZM15.1663 15.7253h-2.3334v2.3334h2.3334v-2.3334ZM10.4996 15.7253H8.1662v2.3334h2.3334v-2.3334Z" fill="#2196F3"/><path d="M54.0635 30.9738c-.6287-.8482-1.5516-1.3941-2.5993-1.5412-1.0523-.1493-2.0907.1271-2.9307.77l-2.7383 2.0988-.0012.0012-4.1511 3.0999-2.9704-1.183c5.2967-2.3765 8.9987-7.6745 8.9987-13.8253 0-8.3628-6.831-15.1668-15.2276-15.1668s-15.2274 6.804-15.2274 15.1668c0 3.0311.9064 5.8498 2.45 8.2216l-6.0458-.0525h-.0105c-.0187 0-.0338.0093-.0513.0105a1.1432 1.1432 0 0 0-.3395.0677c-.028.0105-.0571.0164-.0839.0291-.014.0059-.028.007-.042.014l-7.0724 3.4918c-.0013 0-.0023 0-.0023.0011l-4.1419 1.9918a.8978.8978 0 0 0-.1377.077C.088 35.3452-.4743 37.5036.43 39.2676c.4819.938 1.302 1.6288 2.3101 1.9449a3.9556 3.9556 0 0 0 1.1795.1808c.6336 0 1.2613-.1551 1.8363-.4619l3.0358-1.6147 4.9525-2.5574 2.9681-.0175L4.8085 48.5884c-.0011.0012-.0024.0012-.0036.0023l-2.9284 2.9167c-.6918.6884-1.0722 1.6018-1.0722 2.5761 0 .973.3804 1.8888 1.0722 2.5784.7105.707 1.645 1.0617 2.5795 1.0617.9357 0 1.869-.3547 2.5818-1.0617l2.8747-2.8631 3.8081-2.8432 1.9706 1.9623-3.8536 3.8373c-.0011.0012-.0024.0012-.0036.0023l-2.9284 2.9166c-.6918.6884-1.0722 1.6019-1.0722 2.5761 0 .9731.3804 1.8888 1.0722 2.5785.7105.7069 1.6462 1.0616 2.5807 1.0616.9345 0 1.8702-.3547 2.5819-1.0616l2.9295-2.9167 4.6865-4.6667c.0012-.0012.0012-.0023.0023-.0036l2.2086-2.1875-.0082-.0082c.014-.0139.0338-.0187.0479-.0338l11.3005-12.3773 7.5928 1.0804c.0548.0082.1096.0116.1645.0116.1412 0 .2777-.0338.4095-.084.0385-.0139.0723-.0326.1085-.0512.042-.0211.0863-.0327.1261-.0595l7.0292-4.6667c.0257-.0175.0397-.0455.0641-.0641.028-.0222.0631-.0315.0886-.0561l2.7813-2.6052c1.4472-1.356 1.6467-3.5773.4636-5.1663ZM4.6603 38.8722c-.3792.203-.8097.2438-1.2215.1132-.4084-.1271-.7397-.4061-.9334-.7829-.3523-.686-.1482-1.5214.469-1.9728l2.8736-1.3826.6918 2.0219.2905.8493-2.17 1.1539Zm7.6499-3.9981-3.3868 1.75-.5588-1.6334-.4013-1.1737 4.4335-2.1888-.0866 3.2459Zm33.03-14.4822c0 2.009-.4795 3.9038-1.3102 5.5989l-9.1468-4.1546c-.0957-1.2541-.7466-2.352-1.7243-3.0357l3.2026-10.632c5.2011 1.6545 8.9787 6.5067 8.9787 12.2234Zm-25.7883 0c0-7.076 5.7844-12.8336 12.8942-12.8336.553 0 1.0943.0467 1.6298.1143l-3.1325 10.3988c-.042-.0013-.0817-.0129-.1249-.0129-2.2587 0-4.0963 1.8317-4.0963 4.0834s1.8376 4.0835 4.0963 4.0835c1.519 0 2.8315-.8388 3.5397-2.0663l8.4491 3.8385c-2.3509 3.164-6.1135 5.2279-10.3614 5.2279-7.1096 0-12.894-5.7576-12.894-12.8336Zm13.0295 1.75c0 .9649-.7911 1.7501-1.7629 1.7501-.9718 0-1.7628-.7852-1.7628-1.7501 0-.9648.791-1.75 1.7628-1.75.9718 0 1.7629.7852 1.7629 1.75ZM5.3919 55.0075c-.5168.5121-1.3534.511-1.869.0012-.2486-.2486-.385-.5763-.385-.9252 0-.3477.1364-.6755.385-.9216l2.1045-2.0967 1.862 1.854-2.0975 2.0883Zm7.0303 8.1668c-.5168.5122-1.3545.5134-1.8702.0013-.2486-.2486-.385-.5763-.385-.9252 0-.3477.1364-.6756.385-.9217l2.1059-2.0977.8809.8763.9823.9777-2.0989 2.0893Zm7.6162-7.5881c-.0013.0011-.0024.0011-.0036.0023l-3.8606 3.8501-.8809-.8763-.9823-.9777 3.857-3.8395v-.0011c.0013-.0012.0023-.0012.0036-.0023.0875-.0875.1423-.1925.196-.2963.0152-.0303.0443-.056.0572-.0875.0362-.0898.042-.1866.056-.2812.007-.0538.0304-.1038.0304-.1588 0-.0782-.028-.1539-.0443-.231-.014-.07-.014-.1412-.0409-.2088-.0443-.1096-.1202-.2064-.1995-.301-.0221-.0257-.0303-.0584-.0548-.0829h-.0012c-.0012-.0011-.0012-.0036-.0023-.0046l-3.5153-3.5001c-.0373-.0373-.0851-.0525-.1271-.0839-.0618-.0479-.1213-.0922-.1902-.1261-.0664-.0327-.1341-.0525-.2041-.0712-.0747-.0211-.147-.0374-.2252-.0432-.0712-.0047-.1377.0023-.2088.0105-.0782.0093-.1516.0198-.2275.0443-.0735.0234-.1388.0595-.2064.098-.0432.0245-.0922.0327-.1331.063l-3.8791 2.8958-1.9706-1.9624 5.2478-5.2197 9.5388 9.3814-2.029 2.0102Zm14.9161-15.349c-.0338-.0046-.0654.0082-.0991.0059a1.1477 1.1477 0 0 0-.252.0152c-.0665.0116-.1295.0245-.1925.0466-.0747.0257-.1423.0607-.2113.1027a1.1192 1.1192 0 0 0-.1819.1341c-.0281.0245-.0618.0362-.0875.0641L23.6527 51.8621l-9.4676-9.3114 6.1974-6.1648c.4562-.455.4586-1.1935.0035-1.6509-.2298-.2298-.5319-.343-.8341-.3418v-.0011l-4.8534.0292.0607-3.5164 6.7901.0584c2.7673 2.8304 6.6267 4.5956 10.8968 4.5956.9566 0 1.89-.0991 2.7988-.2684.0875.07.1737.1413.2835.1856l5.2712 2.1.3336 1.659.3896 1.9366-6.5683-.9345Zm8.8399.3897-.6848-3.4079 3.164-2.3626.8284 1.099 1.2425 1.6497-4.5501 3.0218Zm8.2111-6.1928-1.8329 1.7174-2.037-2.7044 1.8188-1.3941c.3395-.2613.7677-.3675 1.1877-.3127.4223.0595.7957.28 1.05.6218.4738.6382.3932 1.5284-.1866 2.072Z" fill="#212121"/><path d="m29.7545 40.5651-4.6877-4.6667c-.4538-.4538-1.1913-.4538-1.6463 0l-4.6865 4.6667a1.1722 1.1722 0 0 0-.343.8271c0 .3104.1225.6079.343.8272l4.6865 4.6667c.2275.2263.5263.3395.8238.3395s.5961-.1132.8225-.3395l4.6877-4.6667a1.1713 1.1713 0 0 0 .3442-.8272c0-.3103-.1238-.6078-.3442-.8271Zm-5.5102 3.8477-3.0334-3.0206 3.0334-3.0205 3.0345 3.0205-3.0345 3.0206ZM37.5468 11.0923l-.5635 2.2658c.1552.0385 3.8011.9882 3.8011 4.7006h2.3334c-.0001-4.4126-3.6436-6.4869-5.571-6.9664ZM43.1178 20.3919h-2.3334v2.3334h2.3334v-2.3334Z" fill="#212121"/>
</symbol>

</defs>
</svg>

